<?xml version="1.0" encoding="UTF-8"?>
<svg id="Layer_2" data-name="Layer 2" xmlns="http://www.w3.org/2000/svg" width="100" height="100" viewBox="0 0 100 100">
  <defs>
    <style>
      .cls-1 {
        fill: #fff;
      }

      .cls-2 {
        fill: #009eff;
      }
    </style>
  </defs>
  <g id="Layer_1-2" data-name="Layer 1">
    <g>
      <rect class="cls-2" width="100" height="100" rx="19.91" ry="19.91"/>
      <path class="cls-1" d="M78.09,38.84l-12.43-16.34c-1.62-2.13-4.66-2.54-6.79-.92-2.13,1.62-2.54,4.66-.92,6.79l2.15,2.83c-5.13,.17-9.71,3.09-13.19,7.04l-.19-.1,1.07-6.39h-14.43l-8.43,47.65h14.72l5.04-28.86c3.1-3.2,8.23-5.62,13.46-5.62,1.09,0,2.24,.19,3.36,.47l-6.54,4.98c-2.13,1.62-2.54,4.66-.92,6.79,1.62,2.13,4.66,2.54,6.79,.92l16.34-12.43h0c2.13-1.63,2.54-4.67,.92-6.8Z"/>
    </g>
  </g>
</svg>