<?xml version="1.0" encoding="UTF-8"?>
<svg id="Layer_2" data-name="Layer 2" xmlns="http://www.w3.org/2000/svg" width="255.24" height="55.8" viewBox="0 0 255.24 55.8">
  <g id="Layer_1-2" data-name="Layer 1">
    <g>
      <path d="M0,55.01L6.26,19.58h10.73l-.79,4.75,.14,.07c2.66-3.02,6.19-5.26,10.15-5.26,.86,0,1.94,.14,2.88,.5l-1.58,10.22c-1.01-.29-2.09-.5-3.1-.5-3.89,0-7.7,1.8-10.01,4.18l-3.74,21.46H0Z"/>
      <path d="M60.56,53.57c-3.17,1.37-7.63,2.23-11.59,2.23-9.65,0-18.29-5.18-18.29-16.06,0-5.4,2.16-11.16,6.19-15.19,3.74-3.74,8.64-5.76,13.97-5.76,8.42,0,15.63,5.11,15.63,14.83,0,1.94-.29,4.54-.86,6.55h-24.12c.5,4.9,4.1,7.13,8.93,7.13,4.03,0,8.79-1.58,11.95-3.24l-1.8,9.5Zm-4.03-20.31c-.07-3.82-2.52-6.12-6.19-6.12s-6.48,2.52-7.92,6.12h14.11Z"/>
      <path d="M73.01,0h10.94V21.17l.14,.07c2.16-1.44,5.33-2.45,8.71-2.45,8.79,0,16.71,6.84,16.71,17.86s-8.14,19.15-19.15,19.15c-3.46,0-6.34-.79-8.78-1.8l-8.57,1.44V0Zm16.56,46.95c5.91,0,8.93-4.61,8.93-9.79s-3.1-9.22-8.5-9.22c-2.38,0-4.46,.79-6.05,1.73v15.91c1.44,.79,3.6,1.37,5.62,1.37Z"/>
      <path d="M134.07,18.79c11.3,0,19.73,8.07,19.73,18.51s-8.42,18.51-19.73,18.51-19.73-8.06-19.73-18.51,8.42-18.51,19.73-18.51Zm0,27.58c4.97,0,8.78-4.03,8.78-9.07s-3.82-9.07-8.78-9.07-8.79,4.03-8.79,9.07,3.82,9.07,8.79,9.07Z"/>
      <path d="M160.63,19.58h10.73v4.75l.14,.07c2.45-3.46,5.9-5.26,10.3-5.26,.72,0,1.51,.07,2.3,.29v10.3c-.86-.22-1.94-.36-2.95-.36-3.82,0-6.99,1.15-9.58,4.18v21.46h-10.95V19.58Z"/>
      <path d="M189.5,19.58h10.73v4.75l.14,.07c2.45-3.46,5.9-5.26,10.3-5.26,.72,0,1.51,.07,2.3,.29v10.3c-.86-.22-1.94-.36-2.95-.36-3.82,0-6.99,1.15-9.58,4.18v21.46h-10.95V19.58Z"/>
      <path d="M235.51,18.79c11.3,0,19.73,8.07,19.73,18.51s-8.42,18.51-19.73,18.51-19.73-8.06-19.73-18.51,8.42-18.51,19.73-18.51Zm0,27.58c4.97,0,8.78-4.03,8.78-9.07s-3.82-9.07-8.78-9.07-8.79,4.03-8.79,9.07,3.82,9.07,8.79,9.07Z"/>
    </g>
  </g>
</svg>